# xmcd
#
# Track frame offsets: 
#        150
#        18370
#        39593
#        60913
#        77239
#        93683
#        114689
#        136028
#        157662
#        174625
#        192901
#
# Disc length: 2896 seconds
#
# Revision: 0
# Processed by: cddbd v1.5.2PL0 Copyright (c) Steve Scherf et al.
# Submitted via: ExactAudioCopy v0.99pb4
#
DISCID=830b4e0b
DTITLE=Ben Granfelt Band - Notes From The Road
DYEAR=2007
DGENRE=Blues
TTITLE0=Going Home (2007)
TTITLE1=Notruf Theme
TTITLE2=Can't Wait Another Day
TTITLE3=Cocaine
TTITLE4=The Long Road Home
TTITLE5=Intro Jam (Live)
TTITLE6=Check Up From The Neck Up (Live)
TTITLE7=Falling Off A Drunken Horse (Live)
TTITLE8=Bridge Of Dreams (Live)
TTITLE9=All I Want To Be (Live)
TTITLE10=Going Home (Live)
EXTD=
EXTT0=
EXTT1=
EXTT2=
EXTT3=
EXTT4=
EXTT5=
EXTT6=
EXTT7=
EXTT8=
EXTT9=
EXTT10=
PLAYORDER=
